<?xml version="1.0" encoding="utf-8"?>
<!-- Generator: Adobe Illustrator 18.0.0, SVG Export Plug-In . SVG Version: 6.00 Build 0)  -->
<!DOCTYPE svg PUBLIC "-//W3C//DTD SVG 1.1//EN" "http://www.w3.org/Graphics/SVG/1.1/DTD/svg11.dtd">
<svg version="1.1" id="Layer_1" xmlns="http://www.w3.org/2000/svg" xmlns:xlink="http://www.w3.org/1999/xlink" x="0px" y="0px"
	 viewBox="0 0 302.1 221.8" enable-background="new 0 0 302.1 221.8" xml:space="preserve">
<g id="Layer_2">
	<g>
		<path fill="#4A9E5C" d="M239.3,0.5h-11.4c2.9,3.6,63,80.4-18.7,162.1c-82.1,82.2-169.2,31-172.5,29v11.5c0,0,94.2,58.1,183-30.6
			S239.3,0.5,239.3,0.5z"/>
		<path fill="#E1E5BD" d="M228,0.6c-0.1-0.1-0.1-0.1-0.1-0.1h-18.4c4.7,6,55.1,73.8-17.1,145.9c-74,74-152.6,28-155.7,26.2v19.1
			c0,0,0.1,0,0.1,0.1c3.3,2,90.5,53.2,172.6-29C291.1,81.1,231,4.2,228,0.6z"/>
	</g>
	<path fill="#9F4B6D" d="M209.5,0.4H36.7v172.5c0,0,80.4,49.5,156.1-26.1S209.5,0.4,209.5,0.4z"/>
</g>
<g id="Layer_1_1_">
	<g>
		<path fill="none" d="M36.5,0.4h202.6c0,0,69,83.2-19.6,172S36.5,203,36.5,203S36.5,0.4,36.5,0.4z"/>
		<path fill="none" d="M36.4,0.3h191.2c0,0,65.2,78.6-18.6,162.3S36.4,191.4,36.4,191.4V0.3z"/>
		<path fill="none" d="M36.4-0.1H209c0,0,58.8,70.9-16.8,146.4S36.4,172.4,36.4,172.4V-0.1z"/>
	</g>
	<path fill="none" d="M1527,700.8"/>
	<path fill="#3F3238" d="M147.7,162.1c0.2,0,0.3-0.1,0.3-0.3c0-1.7,0-1.9,0.6-1.9c0.3,0,0.6,0.3,0.6,0.8c0,1.3-0.1,1.7-2.8,2.8
		c-2,0.8-4,2.4-4,5.2v2.7c0,3.6,2.2,4.9,3.8,4.9c1.3,0,2.2-0.7,2.6-1.2c0.2-0.3,0.4-0.4,0.4-0.4c0.1,0,0.2,0.1,0.4,0.3
		c0.6,0.8,1.2,1.4,2.9,1.4c2,0,3.6-2.1,3.6-3.9v-2.2c0-0.1-0.1-0.3-0.3-0.3c-0.8,0-0.9,0-0.9-0.3v-9.9c0-2.9-2.2-5.4-6.3-5.4
		c-3.8,0-6,2.6-6,5.5c0,1.7,0,1.9,0.3,1.9L147.7,162.1z M149.2,170.6c0,0.4-0.3,0.6-0.6,0.6c-0.3,0-0.6-0.2-0.6-0.6v-2.7
		c0-0.8,0.7-1.2,1-1.2c0.1,0.1,0.2,0.1,0.2,0.3L149.2,170.6L149.2,170.6z"/>
	<path fill="#3F3238" d="M165.7,176.1c0.1,0.2,0.1,0.3,0.3,0.3h6.7c0.2,0,0.3-0.1,0.2-0.4l-4.8-13.6c-0.1-0.1-0.1-0.3-0.1-0.4
		c0-0.1,0.1-0.3,0.1-0.4l4.7-12.1c0.1-0.1,0.1-0.1,0.1-0.2c0-0.2-0.1-0.3-0.3-0.3h-6.5c-0.2,0-0.3,0.1-0.4,0.3l-1.4,6.4
		c-0.1,0.2-0.1,0.3-0.2,0.3s-0.1-0.1-0.1-0.3v-6.3c0-0.2-0.2-0.4-0.4-0.4h-6.2c-0.2,0-0.3,0.2-0.3,0.4V176c0,0.3,0.2,0.6,0.4,0.6
		h6.1c0.3,0,0.4-0.3,0.4-0.4v-7c0-0.2,0.1-0.3,0.1-0.3c0.1,0,0.1,0.1,0.2,0.3L165.7,176.1z"/>
	<path fill="none" d="M172.7,170.8c0,3.4,2.6,5.7,6.3,5.7c3.8,0,6.3-2.3,6.3-5.7v-10.4c0-3.6-2.5-5.8-6.3-5.8s-6.3,2.3-6.3,5.7
		V170.8z M178.4,161.1c0-0.4,0.2-0.7,0.6-0.7c0.4,0,0.6,0.3,0.6,0.7v8.7c0,0.4-0.2,0.7-0.6,0.7c-0.4,0-0.6-0.3-0.6-0.7V161.1z"/>
	<path fill="none" d="M198,176.5c0.1,0,0.3-0.1,0.3-0.3v-27.3c0-0.2-0.1-0.3-0.3-0.3h-4.7c-0.2,0-0.3,0.2-0.3,0.4v6.4
		c0,0.2-0.1,0.3-0.1,0.3c-0.1,0-0.2-0.1-0.4-0.3c-0.5-0.5-1.2-0.8-2-0.8c-1.9,0-4.2,1.5-4.2,7v7.6c0,6,2.1,7.3,3.9,7.3
		c0.8,0,1.6-0.3,2.1-0.6c0.3-0.2,0.4-0.3,0.4-0.3c0.1,0,0.5,0.9,0.7,0.9L198,176.5L198,176.5z M193,170c0,0.3-0.1,0.6-0.3,0.7
		c-0.1,0.1-0.3,0.2-0.4,0.2c-0.4,0-0.4-0.4-0.4-0.7V161c0-0.4,0.1-0.7,0.4-0.7c0.4,0,0.7,0.4,0.7,1V170z"/>
	<path fill="none" d="M205.1,171.3c0-0.2-0.2-0.3-0.4-0.3h-4.5c-0.1,0-0.4,0.2-0.4,0.4v4.5c0,0.2,0.2,0.4,0.4,0.4h4.5
		c0.2,0,0.4-0.2,0.4-0.4V171.3z"/>
	<path fill="none" d="M217.9,161.9c0.2,0,0.4-0.1,0.4-0.3c0-3.6-1.9-7-6.3-7c-3.3,0-5.8,2.4-5.8,5.7c0,2.8,1.3,4.7,2.8,6
		c2,1.7,3.5,3.1,3.5,4c0,0.4-0.2,0.6-0.5,0.6c-0.6,0-1-0.8-1.1-2.1c-0.1-0.1-0.1-0.3-0.3-0.3l-4,0.3c-0.1,0-0.3,0.1-0.3,0.3
		c0,6.1,3.3,7.5,5.8,7.5c4.5,0,6-3.1,6-6.2c0-2.4-0.9-3.9-3.1-5.8c-2-1.9-3.1-2.9-3.1-3.7c0-0.4,0.3-0.6,0.6-0.6
		c0.6,0,0.8,0.6,0.8,1.7c0,0.2,0.1,0.4,0.3,0.3L217.9,161.9z"/>
	<path fill="none" d="M219.1,169.5c0,4.2,2.2,7,6.1,7c3.4,0,6.6-1.4,6.6-6.1V168c0-0.2-0.1-0.4-0.4-0.4l-4.7-0.3
		c-0.2,0-0.3,0.1-0.3,0.3v2.2c0,0.6-0.3,0.8-0.6,0.8c-0.3,0-0.6-0.2-0.6-0.8v-5.8c0-0.2,0.1-0.3,0.2-0.3h6.1c0.2,0,0.3-0.1,0.3-0.3
		v-2.2c0-3.6-2.4-6.8-6.5-6.8c-2.9,0-6.3,1.6-6.3,6L219.1,169.5L219.1,169.5z M225.2,159.8c0-0.6,0.3-0.8,0.6-0.8
		c0.6,0,0.6,0.3,0.6,2.6c0,0.2-0.1,0.2-1,0.2c-0.1,0-0.2-0.1-0.2-0.2L225.2,159.8L225.2,159.8z"/>
	<path fill="#1E0C0E" d="M86.2,157.7c0.3,0,0.4-0.2,0.4-0.4c0-4.4-3-8.2-7.9-8.2s-7.7,4-7.7,7.8c0,2.5,1.2,5.2,3.6,7.2
		c2.4,2,4.5,3.6,4.5,4.5c0,0.8-0.3,1.2-0.8,1.2c-0.9,0-1.5-1.6-1.7-3c-0.1-0.3-0.2-0.4-0.4-0.4l-5.1,0.3c-0.3,0-0.4,0.2-0.4,0.4
		c0,5.8,2.6,9.9,8.1,9.9c4.8,0,7.7-3.9,7.7-8.8c0-2.7-1.8-5.3-4.2-7c-2.2-1.5-3.9-2.8-3.9-4c0-0.4,0.2-0.6,0.6-0.6
		c0.5,0,0.9,0.4,1.1,1.3c0.1,0.3,0.2,0.4,0.4,0.4L86.2,157.7z"/>
	<path fill="#1E0C0E" d="M93.2,176.5c0.2,0,0.3-0.1,0.3-0.2v-15c0-0.6,0.3-0.7,0.6-0.7c0.3,0,0.6,0.2,0.6,0.7v15
		c0,0.1,0.1,0.3,0.3,0.3h5.1c0.1,0,0.2-0.1,0.2-0.2v-17.9c0-2.5-1.8-3.9-3.6-3.9c-1.5,0-2.2,0.4-2.9,1.3c-0.1,0.2-0.2,0.2-0.3,0.2
		c-0.1,0-0.4-1.5-0.7-1.5h-4.5c-0.1,0-0.3,0.1-0.3,0.3v21.3c0,0.2,0.1,0.4,0.3,0.4L93.2,176.5L93.2,176.5z"/>
	<path fill="#1E0C0E" d="M106.6,162.1c0.2,0,0.3-0.1,0.3-0.3c0-1.7,0-1.9,0.6-1.9c0.3,0,0.6,0.3,0.6,0.8c0,1.3-0.1,1.7-2.8,2.8
		c-2,0.8-4,2.4-4,5.2v2.7c0,3.6,2.2,4.9,3.8,4.9c1.3,0,2.2-0.7,2.6-1.2c0.2-0.3,0.4-0.4,0.4-0.4c0.1,0,0.2,0.1,0.4,0.3
		c0.6,0.8,1.2,1.4,2.9,1.4c2,0,3.6-2.1,3.6-3.9v-2.2c0-0.1-0.1-0.3-0.3-0.3c-0.8,0-0.9,0-0.9-0.3v-9.9c0-2.9-2.2-5.4-6.3-5.4
		c-3.8,0-6,2.6-6,5.5c0,1.7,0,1.9,0.3,1.9L106.6,162.1z M108.1,170.6c0,0.4-0.3,0.6-0.6,0.6c-0.3,0-0.6-0.2-0.6-0.6v-2.7
		c0-0.8,0.7-1.2,1-1.2c0.1,0.1,0.2,0.1,0.2,0.3L108.1,170.6L108.1,170.6z"/>
	<path fill="#1E0C0E" d="M115.6,169.5c0,4.2,2.4,7,6,7c6.4,0,6.4-6,6.4-8.4c0-0.2-0.1-0.4-0.4-0.4l-4.9-0.3c-0.3,0-0.4,0.1-0.4,0.4
		v2.4c0,0.4-0.3,0.7-0.6,0.7c-0.3,0-0.6-0.3-0.6-0.7v-9.7c0-0.4,0.3-0.7,0.6-0.7c0.3,0,0.6,0.3,0.6,0.7v2.7c0,0.2,0.2,0.4,0.4,0.4
		l4.8-0.3c0.4-0.1,0.4-0.3,0.4-2c0-3.3-2.4-6.7-6.3-6.7c-3.9,0-6.1,3.1-6.1,6.3L115.6,169.5L115.6,169.5z"/>
	<path fill="#1E0C0E" d="M135.8,176.1c0.1,0.2,0.2,0.3,0.3,0.3h5.4c0.1,0,0.3-0.2,0.2-0.3l-3.1-11.6c-0.1-0.1-0.1-0.2-0.1-0.3
		c0-0.1,0.1-0.2,0.1-0.3l2.7-9.1c0.1-0.2-0.1-0.3-0.3-0.3h-5.1c-0.1,0-0.3,0.1-0.3,0.3l-1,5.1c0,0.1-0.1,0.1-0.1,0.1
		c-0.1,0-0.1-0.1-0.1-0.1v-11.1c0-0.1-0.1-0.3-0.2-0.3h-4.9c-0.1,0-0.3,0.1-0.3,0.3v27.3c0,0.2,0.1,0.4,0.3,0.4h5
		c0.2,0,0.3-0.1,0.3-0.2v-6.8c0-0.1,0.1-0.1,0.1-0.1s0.1,0.1,0.1,0.1L135.8,176.1z"/>
	<path fill="#1E0C0E" d="M147.7,162.1c0.2,0,0.3-0.1,0.3-0.3c0-1.7,0-1.9,0.6-1.9c0.3,0,0.6,0.3,0.6,0.8c0,1.3-0.1,1.7-2.8,2.8
		c-2,0.8-4,2.4-4,5.2v2.7c0,3.6,2.2,4.9,3.8,4.9c1.3,0,2.2-0.7,2.6-1.2c0.2-0.3,0.4-0.4,0.4-0.4c0.1,0,0.2,0.1,0.4,0.3
		c0.6,0.8,1.2,1.4,2.9,1.4c2,0,3.6-2.1,3.6-3.9v-2.2c0-0.1-0.1-0.3-0.3-0.3c-0.8,0-0.9,0-0.9-0.3v-9.9c0-2.9-2.2-5.4-6.3-5.4
		c-3.8,0-6,2.6-6,5.5c0,1.7,0,1.9,0.3,1.9L147.7,162.1z M149.2,170.6c0,0.4-0.3,0.6-0.6,0.6c-0.3,0-0.6-0.2-0.6-0.6v-2.7
		c0-0.8,0.7-1.2,1-1.2c0.1,0.1,0.2,0.1,0.2,0.3L149.2,170.6L149.2,170.6z"/>
	<path fill="#1E0C0E" d="M165.7,176.1c0.1,0.2,0.1,0.3,0.3,0.3h6.7c0.2,0,0.3-0.1,0.2-0.4l-4.8-13.6c-0.1-0.1-0.1-0.3-0.1-0.4
		c0-0.1,0.1-0.3,0.1-0.4l4.7-12.1c0.1-0.1,0.1-0.1,0.1-0.2c0-0.2-0.1-0.3-0.3-0.3h-6.5c-0.2,0-0.3,0.1-0.4,0.3l-1.4,6.4
		c-0.1,0.2-0.1,0.3-0.2,0.3s-0.1-0.1-0.1-0.3v-6.3c0-0.2-0.2-0.4-0.4-0.4h-6.2c-0.2,0-0.3,0.2-0.3,0.4V176c0,0.3,0.2,0.6,0.4,0.6
		h6.1c0.3,0,0.4-0.3,0.4-0.4v-7c0-0.2,0.1-0.3,0.1-0.3c0.1,0,0.1,0.1,0.2,0.3L165.7,176.1z"/>
	<path fill="#1E0C0E" d="M172.7,170.8c0,3.4,2.6,5.7,6.3,5.7c3.8,0,6.3-2.3,6.3-5.7v-10.4c0-3.6-2.5-5.8-6.3-5.8s-6.3,2.3-6.3,5.7
		V170.8z M178.4,161.1c0-0.4,0.2-0.7,0.6-0.7c0.4,0,0.6,0.3,0.6,0.7v8.7c0,0.4-0.2,0.7-0.6,0.7c-0.4,0-0.6-0.3-0.6-0.7V161.1z"/>
	<path fill="#1E0C0E" d="M198,176.5c0.1,0,0.3-0.1,0.3-0.3v-27.3c0-0.2-0.1-0.3-0.3-0.3h-4.7c-0.2,0-0.3,0.2-0.3,0.4v6.4
		c0,0.2-0.1,0.3-0.1,0.3c-0.1,0-0.2-0.1-0.4-0.3c-0.5-0.5-1.2-0.8-2-0.8c-1.9,0-4.2,1.5-4.2,7v7.6c0,6,2.1,7.3,3.9,7.3
		c0.8,0,1.6-0.3,2.1-0.6c0.3-0.2,0.4-0.3,0.4-0.3c0.1,0,0.5,0.9,0.7,0.9L198,176.5L198,176.5z M193,170c0,0.3-0.1,0.6-0.3,0.7
		c-0.1,0.1-0.3,0.2-0.4,0.2c-0.4,0-0.4-0.4-0.4-0.7V161c0-0.4,0.1-0.7,0.4-0.7c0.4,0,0.7,0.4,0.7,1V170z"/>
	<path fill="#1E0C0E" d="M205.1,171.3c0-0.2-0.2-0.3-0.4-0.3h-4.5c-0.1,0-0.4,0.2-0.4,0.4v4.5c0,0.2,0.2,0.4,0.4,0.4h4.5
		c0.2,0,0.4-0.2,0.4-0.4V171.3z"/>
	<path fill="#1E0C0E" d="M217.9,161.9c0.2,0,0.4-0.1,0.4-0.3c0-3.6-1.9-7-6.3-7c-3.3,0-5.8,2.4-5.8,5.7c0,2.8,1.3,4.7,2.8,6
		c2,1.7,3.5,3.1,3.5,4c0,0.4-0.2,0.6-0.5,0.6c-0.6,0-1-0.8-1.1-2.1c-0.1-0.1-0.1-0.3-0.3-0.3l-4,0.3c-0.1,0-0.3,0.1-0.3,0.3
		c0,6.1,3.3,7.5,5.8,7.5c4.5,0,6-3.1,6-6.2c0-2.4-0.9-3.9-3.1-5.8c-2-1.9-3.1-2.9-3.1-3.7c0-0.4,0.3-0.6,0.6-0.6
		c0.6,0,0.8,0.6,0.8,1.7c0,0.2,0.1,0.4,0.3,0.3L217.9,161.9z"/>
	<path fill="#1E0C0E" d="M219.1,169.5c0,4.2,2.2,7,6.1,7c3.4,0,6.6-1.4,6.6-6.1V168c0-0.2-0.1-0.4-0.4-0.4l-4.7-0.3
		c-0.2,0-0.3,0.1-0.3,0.3v2.2c0,0.6-0.3,0.8-0.6,0.8c-0.3,0-0.6-0.2-0.6-0.8v-5.8c0-0.2,0.1-0.3,0.2-0.3h6.1c0.2,0,0.3-0.1,0.3-0.3
		v-2.2c0-3.6-2.4-6.8-6.5-6.8c-2.9,0-6.3,1.6-6.3,6L219.1,169.5L219.1,169.5z M225.2,159.8c0-0.6,0.3-0.8,0.6-0.8
		c0.6,0,0.6,0.3,0.6,2.6c0,0.2-0.1,0.2-1,0.2c-0.1,0-0.2-0.1-0.2-0.2L225.2,159.8L225.2,159.8z"/>
	<path fill="#1E0C0E" d="M61.5,144.3v-20.2L14.3,99v-0.3l47.2-24.8v-20L0,89.7v18.7L61.5,144.3z"/>
	<path fill="#1E0C0E" d="M127.6,76.3c1.1,0,1.7-0.8,1.7-1.8c0-16.3-11.4-30.7-29.8-30.7S70.8,59.1,70.8,73c0,9.3,4.5,19.6,13.7,27
		c9.1,7.4,16.8,13.4,16.8,16.7c0,3.1-1.2,4.4-3.1,4.4c-3.3,0-5.6-5.9-6.1-11.4c-0.1-1.2-0.7-1.8-1.7-1.8l-18.9,1
		c-1.1,0-1.7,0.7-1.7,1.3c0,21.9,9.6,37,30.4,37c18,0,28.9-14.7,28.9-33c0-10.1-6.7-20-15.6-26c-8.2-5.6-14.7-10.6-14.7-14.9
		c0-1.3,0.7-2.5,2-2.5c1.9,0,3.3,1.7,4.1,4.9c0.3,1.1,0.8,1.5,1.7,1.5L127.6,76.3z"/>
	<path fill="#1E0C0E" d="M166.5,145.8c0.1,0.7,0.6,1.1,1.1,1.1h25.2c0.8,0,1.1-0.6,0.8-1.3l-18-50.9c-0.1-0.4-0.3-1.2-0.3-1.5
		c0-0.3,0.1-1.2,0.4-1.8L193.2,46c0.1-0.3,0.1-0.6,0.1-0.8c0-0.7-0.4-1.1-1-1.1h-24.1c-0.7,0-1.2,0.6-1.5,1.2l-5.4,24
		c-0.3,0.7-0.6,1-0.8,1s-0.4-0.4-0.4-1V45.6c0-0.8-0.7-1.3-1.8-1.3h-23.3c-0.7,0-1.2,0.7-1.2,1.3v99.4c0,1.1,0.8,2,1.7,2h22.9
		c1,0,1.8-1,1.8-1.8v-26.4c0-0.7,0.1-1.1,0.4-1.1s0.6,0.3,0.7,1L166.5,145.8z"/>
	<path fill="#1E0C0E" d="M207.9,145.4c-0.1,0.8,0.1,1.5,0.8,1.5h10.1c0.8,0,1.3-0.4,1.5-1.2l13.8-100.3c0-0.6-0.4-1.2-1-1.2h-10.6
		c-0.7,0-1.1,0.4-1.2,1.2L207.9,145.4z"/>
	<path fill="#1E0C0E" d="M240.6,53.9V74l47.2,24.8v0.3l-47.2,25v20.2l61.5-35.7V89.7L240.6,53.9z"/>
</g>
</svg>
